<!DOCTYPE svg PUBLIC "-//W3C//DTD SVG 20010904//EN" "http://www.w3.org/TR/2001/REC-SVG-20010904/DTD/svg10.dtd">
<svg version="1.0" xmlns="http://www.w3.org/2000/svg" width="667px" height="667px" viewBox="0 0 6670 6670" preserveAspectRatio="xMidYMid meet">
<g id="layer101" fill="#1f4393" stroke="none">
 <path d="M2960 6549 c-1228 -113 -2282 -937 -2684 -2099 -126 -362 -180 -713 -180 -1160 0 -274 12 -395 59 -625 203 -985 883 -1826 1806 -2233 484 -214 952 -291 1584 -260 448 21 838 123 1236 323 524 263 936 640 1307 1197 447 671 618 1464 486 2258 -204 1228 -1138 2230 -2354 2525 -277 67 -462 85 -855 83 -170 0 -353 -5 -405 -9z m605 -74 c240 -28 411 -65 615 -130 121 -39 146 -59 33 -27 -176 51 -382 86 -597 103 -190 15 -642 6 -781 -15 -116 -18 -129 -18 -95 -5 40 17 205 49 345 69 163 23 314 24 480 5z m885 -136 c249 -81 498 -203 725 -354 188 -125 283 -203 453 -370 416 -406 691 -883 832 -1442 102 -403 118 -872 45 -1271 -10 -51 -19 -91 -22 -89 -2 3 0 31 6 62 20 108 33 369 27 530 -25 592 -199 1138 -514 1610 -187 280 -361 474 -647 720 -332 285 -611 460 -945 595 -145 58 -152 61 -110 54 19 -4 87 -24 150 -45z m-2033 34 c-4 -3 -10 -3 -14 0 -3 4 0 7 7 7 7 0 10 -3 7 -7z m-28 -7 c-2 -2 -41 -18 -86 -36 -114 -43 -589 -285 -720 -366 -219 -135 -398 -278 -598 -479 -77 -77 -120 -115 -95 -85 74 92 319 332 420 412 296 235 619 412 955 524 91 30 135 41 124 30z m1161 -21 c365 -39 710 -140 1040 -304 771 -385 1345 -1077 1585 -1912 116 -401 145 -859 79 -1239 -197 -1136 -1059 -2092 -2171 -2410 -354 -101 -665 -132 -960 -95 -581 72 -1110 295 -1563 659 -122 98 -355 332 -459 461 -718 891 -883 2090 -432 3139 181 420 432 749 799 1044 599 481 1391 731 2082 657z m1257 -331 c121 -65 235 -135 353 -217 244 -171 556 -527 720 -822 44 -81 27 -61 -52 60 -165 250 -418 525 -663 721 -67 53 -320 224 -402 271 -62 36 -31 26 44 -13z m-3578 -411 c-160 -172 -383 -461 -498 -645 -253 -406 -398 -820 -463 -1328 -18 -145 -15 -548 6 -705 44 -329 128 -632 245 -889 49 -109 27 -90 -29 25 -213 432 -320 891 -320 1366 0 697 320 1452 844 1992 101 104 272 261 283 261 3 0 -28 -35 -68 -77z m4925 -988 c311 -651 380 -1405 194 -2105 -96 -364 -290 -768 -487 -1015 -76 -96 -307 -331 -399 -407 l-77 -62 89 94 c463 490 741 1051 845 1700 47 295 59 740 27 980 -43 325 -128 630 -250 904 -14 32 -26 61 -26 65 0 10 44 -70 84 -154z m-5757 -652 c-4 -3 -7 0 -7 7 0 7 3 10 7 7 3 -4 3 -10 0 -14z m-28 -195 c-20 -154 -17 -551 5 -718 137 -1049 761 -1935 1701 -2416 77 -39 191 -91 253 -115 63 -24 109 -45 103 -47 -16 -5 -248 73 -373 125 -323 135 -645 340 -838 533 -269 269 -493 595 -639 927 -238 543 -315 1129 -225 1716 9 59 19 105 22 103 2 -3 -2 -51 -9 -108z m289 -2118 c169 -241 367 -455 632 -680 180 -154 310 -250 468 -347 67 -41 122 -77 122 -80 0 -7 -166 85 -273 151 -279 173 -524 388 -753 661 -90 107 -218 292 -277 400 -31 55 -25 48 81 -105z m4952 -274 c0 -2 -8 -10 -17 -17 -16 -13 -17 -12 -4 4 13 16 21 21 21 13z m-78 -93 c-233 -268 -593 -555 -843 -672 -86 -40 -357 -136 -365 -129 -2 2 33 19 79 38 390 159 720 377 1032 682 77 76 142 137 143 138 2 0 -18 -26 -46 -57z m-722 -698 c0 -6 -76 -45 -87 -45 -4 1 12 12 37 25 50 27 50 27 50 20z m-503 -112 c-4 -3 -10 -3 -14 0 -3 4 0 7 7 7 7 0 10 -3 7 -7z m-1980 -50 c-4 -3 -10 -3 -14 0 -3 4 0 7 7 7 7 0 10 -3 7 -7z m118 -27 c194 -52 387 -82 615 -96 179 -10 708 5 845 24 55 8 101 13 103 11 1 -1 -28 -9 -65 -18 -303 -70 -560 -95 -786 -77 -259 21 -566 84 -757 155 -84 31 -68 31 45 1z"/>
 <path d="M1103 3933 c-21 -15 -31 -56 -20 -80 11 -24 18 -27 82 -38 54 -9 99 -39 127 -83 23 -36 23 -44 28 -374 4 -297 7 -339 22 -354 24 -24 68 -21 91 7 17 22 18 42 15 358 -3 318 -4 338 -24 382 -31 65 -87 124 -149 154 -54 27 -151 42 -172 28z"/>
 <path d="M2098 3647 c-87 -25 -162 -91 -202 -177 -19 -41 -21 -63 -21 -253 0 -195 1 -210 19 -223 27 -19 60 -18 78 4 13 14 17 53 20 207 3 176 5 193 26 230 65 115 214 133 304 38 43 -45 48 -73 48 -262 0 -165 2 -180 21 -205 27 -34 62 -34 89 2 21 26 22 34 18 217 -4 179 -5 193 -30 247 -31 66 -90 128 -154 157 -57 27 -154 35 -216 18z"/>
 <path d="M3131 3645 c-70 -20 -108 -44 -161 -101 -64 -69 -84 -123 -85 -224 0 -72 4 -94 26 -141 87 -186 328 -256 492 -145 l37 25 0 -157 c0 -177 7 -202 60 -202 58 0 60 12 60 345 0 337 -7 385 -63 464 -86 120 -231 173 -366 136z m174 -124 c50 -22 109 -86 125 -136 28 -86 -14 -201 -92 -253 -36 -23 -51 -27 -118 -27 -67 0 -82 4 -118 28 -23 15 -54 46 -69 69 -24 36 -28 51 -28 117 0 69 3 80 32 123 61 86 177 121 268 79z"/>
 <path d="M4209 3650 c-101 -17 -207 -99 -251 -195 -34 -75 -33 -199 3 -275 36 -77 78 -121 151 -160 51 -27 77 -34 138 -38 107 -6 175 21 256 102 62 63 85 109 100 203 6 36 3 45 -20 68 l-26 26 -161 -3 c-145 -3 -162 -5 -175 -22 -19 -27 -18 -60 4 -79 15 -14 41 -17 135 -17 64 0 117 -4 117 -9 0 -5 -15 -30 -32 -57 -80 -117 -251 -128 -345 -21 -91 103 -64 264 56 335 66 39 157 38 223 0 76 -45 118 -34 118 29 0 29 -6 38 -47 63 -74 47 -156 64 -244 50z"/>
 <path d="M5147 3649 c-68 -11 -130 -44 -181 -96 -64 -64 -88 -122 -94 -218 -5 -108 21 -179 92 -250 78 -78 132 -100 241 -100 78 0 97 4 146 28 107 52 179 155 187 268 7 96 0 99 -193 99 -168 0 -195 -8 -195 -59 0 -51 24 -61 148 -61 103 0 112 -2 112 -19 0 -18 -31 -65 -60 -89 -85 -71 -215 -69 -293 6 -90 85 -93 239 -5 318 78 72 196 81 280 23 32 -23 71 -24 92 -3 74 74 -117 180 -277 153z"/>
 <path d="M1330 2850 c-20 -20 -26 -63 -14 -95 9 -23 60 -46 88 -39 56 14 80 91 41 134 -25 27 -88 27 -115 0z"/>
 </g>

</svg>