<!DOCTYPE svg PUBLIC "-//W3C//DTD SVG 20010904//EN" "http://www.w3.org/TR/2001/REC-SVG-20010904/DTD/svg10.dtd">
<svg version="1.0" xmlns="http://www.w3.org/2000/svg" width="857px" height="386px" viewBox="0 0 8570 3860" preserveAspectRatio="xMidYMid meet">
<g id="layer101" fill="#83b0d5" stroke="none">
 <path d="M535 3510 c-55 -14 -155 -61 -154 -74 2 -26 37 -111 45 -108 5 1 41 13 79 27 127 45 254 27 318 -44 71 -79 87 -204 87 -708 l0 -333 76 0 76 0 -5 443 c-3 252 -9 461 -15 487 -35 153 -107 249 -216 289 -68 25 -226 36 -291 21z"/>
 <path d="M2235 3477 c-166 -62 -263 -187 -306 -392 -16 -78 -19 -137 -19 -453 l0 -363 78 3 77 3 5 395 c6 425 8 438 63 533 36 62 107 122 166 144 l51 18 0 67 c0 68 0 68 -27 67 -16 0 -55 -10 -88 -22z"/>
 <path d="M2510 3434 l0 -69 48 -17 c76 -27 134 -78 172 -149 60 -112 63 -136 67 -552 l5 -378 76 3 77 3 3 275 c5 429 -14 578 -91 723 -57 108 -195 208 -310 223 l-47 7 0 -69z"/>
 <path d="M3820 3040 l0 -460 75 0 75 0 0 390 0 390 174 0 c145 0 185 -3 238 -20 190 -58 292 -217 292 -455 0 -207 -85 -361 -239 -431 -79 -36 -146 -44 -392 -44 l-223 0 0 -71 0 -72 268 6 c298 6 338 13 457 75 136 72 228 196 270 367 22 89 22 266 0 350 -45 172 -148 304 -287 370 -117 56 -180 65 -460 65 l-248 0 0 -460z"/>
 <path d="M5640 3430 l0 -70 415 0 415 0 0 70 0 70 -415 0 -415 0 0 -70z"/>
 <path d="M7272 3433 l3 -68 415 0 415 0 3 68 3 67 -421 0 -421 0 3 -67z"/>
 <path d="M5647 3204 c-4 -4 -7 -94 -7 -201 l0 -193 365 0 365 0 0 65 0 65 -285 0 -284 0 -3 133 -3 132 -70 3 c-39 1 -74 0 -78 -4z"/>
 <path d="M7277 3204 c-4 -4 -7 -94 -7 -201 l0 -193 365 0 365 0 0 65 0 65 -285 0 -284 0 -3 133 -3 132 -70 3 c-39 1 -74 0 -78 -4z"/>
 <path d="M5640 2460 l0 -190 410 0 410 0 0 70 0 70 -330 0 -330 0 0 120 0 120 -80 0 -80 0 0 -190z"/>
 <path d="M7272 2463 l3 -188 408 -3 407 -2 0 70 0 70 -330 0 -330 0 0 120 0 120 -80 0 -80 0 2 -187z"/>
 <path d="M3750 1911 c-5 -11 -10 -84 -10 -164 l0 -145 -104 -4 c-97 -3 -108 -6 -147 -33 -23 -17 -53 -50 -66 -74 l-23 -44 0 -521 c0 -521 0 -522 23 -566 13 -26 40 -57 65 -75 l44 -30 686 -3 c478 -2 698 0 725 8 47 14 106 65 123 107 18 42 20 1065 3 1110 -15 40 -57 82 -104 104 -36 17 -70 19 -378 19 l-339 0 -219 165 c-224 169 -257 186 -279 146z m276 -266 l179 -135 343 0 c377 0 397 -3 426 -59 14 -26 16 -95 16 -528 0 -378 -3 -504 -13 -523 -7 -14 -28 -33 -47 -42 -32 -17 -86 -18 -683 -18 -696 0 -695 0 -731 51 -14 21 -16 78 -16 534 0 456 2 513 16 534 28 39 73 51 193 51 99 0 111 2 121 19 5 11 10 72 10 135 0 64 2 116 4 116 2 0 84 -61 182 -135z"/>
 <path d="M3979 1200 c-63 -11 -101 -32 -142 -80 -44 -52 -62 -114 -62 -215 1 -182 109 -285 285 -273 75 6 110 22 162 73 50 50 72 119 72 220 -1 195 -128 306 -315 275z m129 -110 c51 -31 76 -96 70 -184 -8 -120 -56 -176 -150 -176 -104 0 -166 114 -137 251 9 40 21 63 49 92 33 33 43 37 86 37 32 0 61 -7 82 -20z"/>
 <path d="M4420 1182 c-48 -24 -73 -71 -74 -140 l-1 -57 50 0 50 0 7 48 c8 59 22 77 59 77 56 0 59 -11 59 -246 l0 -214 55 0 55 0 0 217 c0 198 -2 220 -20 259 -14 27 -33 48 -54 58 -46 22 -142 21 -186 -2z"/>
 </g>

</svg>