<!DOCTYPE svg PUBLIC "-//W3C//DTD SVG 20010904//EN" "http://www.w3.org/TR/2001/REC-SVG-20010904/DTD/svg10.dtd">
<svg version="1.0" xmlns="http://www.w3.org/2000/svg" width="584px" height="152px" viewBox="0 0 5840 1520" preserveAspectRatio="xMidYMid meet">
<g id="layer101" fill="#608290" stroke="none">
 <path d="M293 1479 c-63 -24 -118 -82 -134 -141 -15 -57 -6 -149 21 -221 49 -129 253 -293 464 -372 28 -11 52 -27 57 -39 11 -28 52 -366 45 -373 -12 -12 -215 -15 -296 -4 -118 16 -155 27 -194 62 -46 40 -54 88 -27 158 24 63 16 93 -28 116 -64 32 -109 12 -138 -62 -22 -59 -22 -172 0 -225 41 -96 160 -175 308 -202 224 -42 563 -20 632 42 38 33 10 132 -38 132 -8 0 -15 2 -15 4 0 2 -11 82 -25 178 -86 601 -219 885 -445 952 -70 21 -123 20 -187 -5z m160 -143 c42 -17 100 -85 132 -152 26 -56 71 -203 82 -267 l6 -40 -83 44 c-154 82 -243 189 -256 305 -6 57 9 92 46 111 31 16 34 16 73 -1z"/>
 <path d="M5102 1482 c-118 -42 -170 -149 -142 -288 35 -170 197 -326 455 -437 49 -21 91 -40 91 -40 8 -8 46 -379 40 -384 -4 -5 -78 -8 -164 -8 -267 1 -366 44 -364 159 0 24 7 57 16 74 9 17 16 38 16 47 0 26 -55 75 -84 75 -74 0 -116 -69 -116 -192 0 -153 93 -255 277 -302 157 -41 451 -41 603 -1 70 18 104 54 95 99 -7 32 -37 66 -60 66 -8 0 -19 53 -34 163 -65 468 -151 723 -294 874 -93 99 -222 135 -335 95z m151 -146 c81 -34 150 -152 196 -336 16 -63 28 -117 26 -118 -7 -8 -143 70 -197 112 -74 59 -119 126 -135 200 -14 72 -1 124 37 143 31 16 34 16 73 -1z"/>
 <path d="M1116 1349 c-37 -10 -63 -35 -90 -84 -18 -34 -21 -56 -20 -150 1 -159 45 -354 90 -396 29 -27 101 -36 128 -16 20 14 20 16 -7 133 -50 220 -55 314 -17 314 42 0 111 -123 164 -290 42 -130 47 -140 77 -155 59 -31 124 -9 114 38 -29 137 -75 379 -75 398 0 69 52 75 120 13 30 -28 40 -44 40 -68 0 -45 23 -123 54 -184 50 -99 157 -184 259 -207 l51 -11 17 -111 c44 -298 121 -482 222 -532 89 -44 161 -5 193 105 44 151 -35 451 -202 772 -70 133 -78 175 -48 238 20 42 51 51 97 29 64 -30 78 -54 82 -141 8 -203 145 -354 320 -354 98 1 166 64 173 162 9 116 -54 204 -184 258 -40 16 -79 30 -88 30 -26 0 -26 16 0 41 22 21 35 24 102 24 65 0 86 -5 134 -29 86 -43 95 -57 100 -151 10 -179 124 -313 282 -331 141 -17 237 86 207 220 -23 102 -101 174 -234 214 -66 20 -71 37 -17 65 51 26 140 19 213 -16 31 -16 86 -55 121 -87 44 -40 71 -57 82 -53 13 5 13 0 -4 -34 -58 -112 -69 -297 -27 -430 65 -208 237 -363 452 -408 322 -68 647 147 708 470 19 96 19 151 0 239 -30 140 -111 270 -220 353 -75 56 -112 75 -200 102 -66 20 -88 21 -413 19 l-343 -3 101 -58 c55 -32 100 -62 100 -66 0 -4 -10 -16 -21 -27 -12 -10 -39 -40 -59 -66 l-38 -47 -6 40 c-8 48 -55 103 -132 154 -153 102 -357 103 -465 4 l-41 -38 -32 24 c-148 113 -387 116 -490 7 l-29 -31 -38 34 c-56 50 -115 77 -169 77 -62 0 -101 -22 -137 -76 l-30 -45 -48 49 c-52 53 -90 71 -153 72 -58 1 -104 -18 -141 -56 l-33 -34 -44 33 c-60 46 -113 61 -197 57 -44 -3 -83 -49 -97 -115 l-11 -57 -32 62 c-45 87 -105 125 -171 107z m816 -153 c10 -7 31 -29 46 -49 26 -33 28 -40 21 -84 -4 -26 -8 -90 -8 -141 l-1 -93 -30 16 c-83 43 -140 147 -140 258 0 77 18 107 63 107 18 0 40 -7 49 -14z m739 -226 c31 -29 39 -44 39 -73 0 -19 -7 -43 -16 -51 -54 -55 -153 42 -154 151 l0 42 46 -16 c25 -8 63 -32 85 -53z m557 -3 c55 -56 45 -137 -17 -137 -57 0 -107 68 -118 161 l-6 50 54 -20 c29 -12 69 -36 87 -54z m911 -207 c77 -168 87 -197 75 -210 -9 -9 -17 -11 -23 -5 -19 21 -181 390 -176 403 14 36 41 -5 124 -188z m-199 176 c0 -8 -36 -50 -80 -94 -44 -43 -80 -83 -80 -88 0 -5 36 -45 80 -89 79 -78 91 -97 69 -111 -12 -7 -209 183 -209 201 0 5 42 51 92 102 86 87 128 112 128 79z m488 -80 c51 -51 92 -97 92 -102 0 -13 -193 -204 -206 -204 -7 0 -15 7 -18 16 -4 12 19 42 79 103 l84 86 -86 86 c-82 83 -95 109 -54 109 9 0 59 -42 109 -94z m-2173 -256 c57 -166 81 -346 55 -415 -35 -91 -95 100 -125 399 -8 77 -14 159 -14 181 l1 40 24 -53 c13 -29 40 -98 59 -152z"/>
 </g>

</svg>
