<!DOCTYPE svg PUBLIC "-//W3C//DTD SVG 20010904//EN" "http://www.w3.org/TR/2001/REC-SVG-20010904/DTD/svg10.dtd">
<svg version="1.0" xmlns="http://www.w3.org/2000/svg" width="210px" height="242px" viewBox="0 0 2100 2420" preserveAspectRatio="xMidYMid meet">
<g id="layer101" fill="#313b47" stroke="none">
 <path d="M155 2396 c-16 -12 -18 -23 -12 -102 13 -171 68 -314 159 -408 l53 -55 -49 -42 c-52 -45 -74 -85 -78 -143 -2 -31 -8 -40 -43 -61 -23 -13 -55 -43 -71 -66 -26 -39 -29 -50 -29 -128 0 -77 -3 -90 -26 -121 -63 -84 -64 -204 -4 -270 13 -15 13 -21 -2 -51 -41 -78 -8 -216 62 -262 30 -19 32 -24 27 -64 -10 -87 66 -201 147 -223 32 -8 38 -15 49 -54 23 -87 112 -157 204 -160 26 0 48 -4 48 -8 0 -16 66 -80 99 -97 55 -27 94 -32 153 -16 51 13 54 13 88 -10 19 -13 48 -29 63 -34 63 -24 155 -5 204 41 20 19 25 20 55 7 84 -35 194 -2 252 76 28 36 35 40 77 41 89 3 178 74 201 160 11 39 17 46 49 54 80 22 159 144 146 226 -5 31 -1 39 38 75 72 67 93 166 52 249 -15 29 -15 33 9 67 20 30 24 48 24 111 0 62 -4 83 -25 117 -13 24 -31 45 -40 48 -12 5 -13 12 -5 32 16 41 11 116 -9 160 -22 49 -74 103 -107 111 -20 5 -24 12 -24 45 0 53 -31 110 -83 154 l-42 35 50 54 c94 99 148 237 162 413 4 60 2 87 -7 98 -11 13 -117 15 -904 15 -734 0 -895 -2 -911 -14z"/>
 <path d="M0 9 c0 -5 9 -9 20 -9 11 0 20 2 20 4 0 2 -9 6 -20 9 -11 3 -20 1 -20 -4z"/>
 </g>
<g id="layer102" fill="#394654" stroke="none">
 <path d="M157 2393 c-12 -12 -7 -142 9 -221 22 -110 72 -211 141 -284 53 -55 56 -61 39 -72 -66 -40 -115 -117 -116 -181 -1 -25 -9 -35 -45 -57 -77 -47 -115 -135 -97 -223 9 -46 8 -52 -13 -75 -63 -70 -76 -174 -30 -258 24 -45 25 -50 11 -77 -38 -72 -9 -196 59 -253 30 -25 33 -33 37 -93 3 -52 10 -76 31 -108 30 -45 75 -78 120 -88 19 -4 29 -13 32 -32 19 -97 102 -171 200 -179 49 -4 57 -8 76 -38 44 -72 162 -111 246 -80 37 13 43 13 54 0 57 -69 240 -70 297 -2 11 13 17 14 50 2 45 -16 85 -17 135 -3 41 11 112 69 122 98 4 14 20 20 65 24 103 9 179 71 197 160 7 33 14 41 46 52 94 32 140 94 145 196 4 63 7 70 37 93 66 51 93 161 60 244 -15 38 -15 41 10 87 45 85 32 188 -32 256 -22 24 -24 30 -13 68 25 94 -34 213 -121 244 -11 4 -19 22 -24 54 -10 79 -65 155 -126 175 -5 2 17 31 50 64 103 106 153 239 155 408 l1 101 -901 3 c-495 1 -904 -1 -907 -5z"/>
 <path d="M8 3 c7 -3 16 -2 19 1 4 3 -2 6 -13 5 -11 0 -14 -3 -6 -6z"/>
 </g>
<g id="layer103" fill="#3e5361" stroke="none">
 <path d="M470 2238 l0 -98 -30 0 -30 0 0 95 0 95 -98 0 -99 0 3 -60 c9 -168 97 -334 206 -391 l37 -19 22 45 c19 38 34 51 86 77 56 27 69 30 121 24 55 -6 59 -5 71 17 29 53 146 87 222 64 l46 -14 0 29 c0 26 -3 29 -25 25 -34 -7 -92 45 -92 83 0 39 44 80 85 80 27 0 33 4 33 23 l0 22 -279 0 -279 0 0 -97z"/>
 <path d="M1093 2313 c0 -19 5 -23 32 -23 42 0 78 -38 77 -82 -1 -43 -48 -88 -84 -81 -22 4 -25 1 -25 -25 l0 -29 46 14 c29 9 63 12 91 8 46 -7 123 -53 134 -81 5 -13 15 -15 55 -9 90 12 178 -29 219 -102 27 -49 42 -48 105 7 83 74 135 181 155 320 14 98 13 113 -4 106 -9 -3 -54 -6 -100 -6 l-84 0 0 -95 0 -95 -30 0 -30 0 0 98 0 97 -279 0 -278 0 0 -22z"/>
 <path d="M980 2210 c0 -12 16 -15 80 -15 64 0 80 3 80 15 0 12 -16 15 -80 15 -64 0 -80 -3 -80 -15z"/>
 <path d="M879 2023 c-38 -13 -65 -35 -109 -90 -8 -9 -21 -9 -59 3 -45 13 -54 13 -93 -3 -59 -23 -89 -55 -103 -110 l-12 -46 -58 -4 c-97 -7 -149 -64 -145 -155 4 -63 3 -65 -34 -72 -94 -18 -147 -138 -100 -227 15 -30 15 -31 -23 -67 -60 -57 -69 -82 -55 -149 7 -36 21 -67 39 -85 l27 -28 -22 -39 c-32 -57 -31 -143 4 -188 14 -18 31 -33 38 -33 7 0 22 -9 34 -20 16 -15 19 -26 13 -43 -13 -38 -5 -117 16 -145 27 -36 71 -60 110 -61 37 -1 48 -16 57 -82 12 -82 101 -141 179 -118 34 10 67 -10 67 -40 1 -21 28 -54 63 -76 40 -26 121 -23 159 5 l30 22 26 -24 c15 -12 31 -28 37 -35 17 -20 87 -32 132 -24 28 6 55 20 80 45 42 41 46 42 63 21 7 -8 29 -19 49 -25 74 -19 155 23 187 98 13 32 17 34 56 32 83 -5 98 -1 139 38 32 29 41 46 46 82 8 65 19 80 56 81 43 1 87 28 108 67 19 33 27 104 16 137 -9 26 0 38 43 62 41 23 79 93 75 139 -1 18 -13 52 -27 77 l-26 46 24 22 c12 12 29 36 37 53 12 27 13 48 8 118 -1 20 -49 72 -73 81 -21 8 -22 23 -3 57 19 33 19 114 0 150 -18 35 -63 68 -104 76 -34 7 -34 7 -32 79 3 88 -41 132 -154 151 -46 8 -50 12 -60 45 -15 52 -40 86 -77 102 -53 24 -75 26 -123 12 -49 -15 -45 -17 -86 38 -45 59 -149 75 -213 32 -45 -30 -49 -31 -85 -4 -42 31 -91 39 -142 22z m348 -209 c98 -26 216 -77 263 -113 20 -16 22 -21 11 -35 -19 -23 -32 -20 -108 18 -96 48 -152 65 -262 78 -234 27 -465 -67 -622 -254 -104 -125 -158 -274 -161 -448 -1 -52 2 -110 6 -127 l8 -33 281 0 282 0 56 -60 c73 -78 87 -78 159 0 l56 60 281 0 281 0 7 31 c12 54 7 212 -9 280 -30 128 -99 261 -175 333 -34 33 -38 48 -17 65 21 18 42 4 98 -67 129 -162 177 -306 172 -516 -1 -62 -8 -133 -14 -157 -34 -127 -138 -306 -223 -382 -63 -56 -76 -67 -83 -67 -3 0 -19 -10 -36 -21 -73 -53 -194 -98 -308 -116 -54 -9 -200 -6 -249 6 -25 5 -48 8 -52 5 -4 -2 -10 0 -14 6 -3 5 -15 10 -26 10 -10 0 -27 4 -37 9 -9 5 -39 20 -67 32 -58 28 -201 127 -232 160 -24 28 -113 158 -113 168 0 4 -8 18 -17 31 -10 14 -30 63 -46 110 -25 75 -28 100 -29 215 -1 127 3 182 14 201 3 5 9 25 13 44 10 45 65 160 99 204 14 19 26 37 26 39 0 21 140 157 161 157 4 0 12 6 16 13 16 25 183 97 303 130 34 10 264 3 307 -9z m-93 -535 c50 -40 21 -88 -34 -55 -35 20 -64 21 -80 1 -16 -19 -44 -19 -60 0 -10 12 -7 20 18 45 26 25 38 30 80 30 35 0 57 -6 76 -21z m-446 -156 c3 -54 1 -62 -17 -68 -34 -10 -41 3 -41 71 l0 65 28 -3 c26 -3 27 -6 30 -65z m797 -3 c0 -63 -1 -65 -25 -65 -23 0 -25 4 -28 54 -4 68 2 83 30 79 21 -3 23 -8 23 -68z"/>
 <path d="M490 825 c0 -19 49 -120 84 -175 78 -119 191 -217 324 -277 47 -22 69 -26 156 -25 114 0 168 10 275 53 151 60 288 188 360 333 23 45 41 85 41 89 0 4 -114 7 -252 7 l-253 1 -52 -58 -52 -58 -61 0 -61 0 -52 58 -52 58 -202 -1 c-112 0 -203 -2 -203 -5z"/>
 </g>
<g id="layer104" fill="#d25f6c" stroke="none">
 <path d="M222 2258 c17 -161 86 -298 182 -365 l49 -34 12 28 c16 38 72 91 115 109 22 10 58 14 97 12 59 -3 64 -1 94 30 45 46 93 64 159 60 30 -3 63 -8 73 -12 13 -6 17 -4 17 12 0 15 -9 21 -35 26 -40 8 -75 47 -75 86 0 39 35 78 75 86 20 3 35 12 35 20 0 12 -46 14 -270 14 l-270 0 0 -89 c0 -95 -11 -118 -50 -106 -18 6 -20 14 -20 101 l0 94 -98 0 -98 0 8 -72z"/>
 <path d="M1100 2316 c0 -8 15 -17 35 -20 41 -8 75 -47 75 -88 0 -36 -38 -76 -80 -84 -20 -5 -30 -12 -30 -25 0 -16 4 -17 26 -9 68 26 164 4 222 -53 31 -30 37 -32 96 -29 92 5 166 -38 208 -121 l14 -28 50 34 c96 66 170 214 181 365 l6 72 -97 0 -96 0 0 -94 c0 -87 -2 -95 -20 -101 -39 -12 -50 11 -50 106 l0 89 -270 0 c-224 0 -270 -2 -270 -14z"/>
 <path d="M1000 2210 c0 -6 27 -10 60 -10 33 0 60 4 60 10 0 6 -27 10 -60 10 -33 0 -60 -4 -60 -10z"/>
 <path d="M865 2019 c-11 -6 -39 -32 -62 -57 -41 -46 -42 -46 -75 -34 -96 34 -175 -6 -209 -106 l-16 -47 -54 -3 c-91 -5 -153 -73 -148 -161 3 -56 1 -59 -38 -71 -93 -30 -141 -134 -98 -210 21 -37 18 -53 -15 -75 -73 -48 -87 -154 -29 -220 34 -39 36 -58 9 -92 -27 -35 -27 -116 0 -160 10 -18 37 -44 59 -57 l40 -26 -5 -67 c-5 -57 -2 -73 15 -101 25 -39 76 -72 112 -72 34 0 45 -15 52 -67 11 -89 80 -140 174 -130 l54 6 19 -44 c37 -87 127 -118 217 -73 l43 22 38 -37 c71 -69 153 -69 223 -1 l39 38 43 -22 c88 -44 168 -18 212 68 l24 48 58 -5 c45 -3 66 0 93 15 41 23 80 84 80 128 0 38 12 49 65 59 28 5 51 19 79 48 l39 41 -6 76 -6 75 37 20 c81 44 106 138 57 221 l-25 43 24 28 c37 45 46 68 46 124 0 49 -3 55 -45 96 -50 47 -52 56 -29 102 20 40 14 103 -13 140 -11 14 -39 36 -64 48 -63 32 -69 38 -62 77 8 49 -13 101 -55 136 -30 25 -45 30 -89 30 -49 0 -54 2 -64 28 -49 127 -115 166 -216 130 -32 -12 -34 -11 -81 39 -50 55 -82 69 -139 60 -31 -5 -47 -14 -99 -52 -9 -7 -19 -7 -28 0 -55 40 -73 48 -114 52 -26 2 -56 -1 -67 -8z m400 -214 c94 -26 203 -76 230 -105 17 -19 12 -45 -12 -54 -9 -4 -39 6 -67 22 -61 34 -144 66 -209 81 -72 17 -236 15 -314 -4 -229 -56 -432 -243 -507 -467 -29 -86 -43 -222 -32 -311 l7 -57 266 0 c301 0 306 -1 363 -75 54 -69 73 -69 137 -1 29 31 65 61 79 66 14 6 144 10 289 10 l264 0 7 57 c24 193 -38 398 -166 548 -52 62 -61 97 -27 103 34 7 133 -110 190 -223 68 -136 95 -345 64 -491 -56 -263 -237 -481 -478 -577 -74 -30 -215 -57 -293 -57 -70 0 -199 24 -266 49 -221 83 -409 281 -478 503 -22 73 -26 101 -26 233 -1 100 4 163 12 190 82 247 209 403 407 500 132 66 207 83 350 84 98 1 136 -3 210 -24z m-133 -523 c37 -21 43 -42 19 -65 -19 -20 -20 -20 -47 2 -33 26 -48 26 -89 1 -30 -19 -34 -19 -49 -5 -9 9 -16 20 -16 24 0 18 29 43 65 56 43 15 74 11 117 -13z m-458 -88 c23 -9 23 -132 0 -141 -31 -11 -49 11 -52 64 -2 36 2 55 13 67 19 18 18 18 39 10z m804 -3 c9 -5 12 -27 10 -72 -3 -61 -4 -64 -28 -64 -24 0 -25 3 -28 64 -3 59 5 81 28 81 3 0 11 -4 18 -9z"/>
 </g>
<g id="layer105" fill="#f2dad6" stroke="none">
 <path d="M222 2258 c17 -161 86 -298 182 -365 l49 -34 12 28 c16 38 72 91 115 109 22 10 58 14 97 12 59 -3 64 -1 94 30 45 46 93 64 159 60 30 -3 63 -8 73 -12 13 -6 17 -4 17 12 0 15 -9 21 -35 26 -40 8 -75 47 -75 86 0 39 35 78 75 86 20 3 35 12 35 20 0 12 -46 14 -270 14 l-270 0 0 -89 c0 -95 -11 -118 -50 -106 -18 6 -20 14 -20 101 l0 94 -98 0 -98 0 8 -72z"/>
 <path d="M1100 2316 c0 -8 15 -17 35 -20 41 -8 75 -47 75 -88 0 -36 -38 -76 -80 -84 -20 -5 -30 -12 -30 -25 0 -16 4 -17 26 -9 68 26 164 4 222 -53 31 -30 37 -32 96 -29 92 5 166 -38 208 -121 l14 -28 50 34 c96 66 170 214 181 365 l6 72 -97 0 -96 0 0 -94 c0 -87 -2 -95 -20 -101 -39 -12 -50 11 -50 106 l0 89 -270 0 c-224 0 -270 -2 -270 -14z"/>
 <path d="M1000 2210 c0 -6 27 -10 60 -10 33 0 60 4 60 10 0 6 -27 10 -60 10 -33 0 -60 -4 -60 -10z"/>
 <path d="M865 2019 c-11 -6 -39 -32 -62 -57 -41 -46 -42 -46 -75 -34 -96 34 -175 -6 -209 -106 l-16 -47 -54 -3 c-91 -5 -153 -73 -148 -161 3 -56 1 -59 -38 -71 -93 -30 -141 -134 -98 -210 21 -37 18 -53 -15 -75 -73 -48 -87 -154 -29 -220 34 -39 36 -58 9 -92 -27 -35 -27 -116 0 -160 10 -18 37 -44 59 -57 l40 -26 -5 -67 c-5 -57 -2 -73 15 -101 25 -39 76 -72 112 -72 34 0 45 -15 52 -67 11 -89 80 -140 174 -130 l54 6 19 -44 c37 -87 127 -118 217 -73 l43 22 38 -37 c71 -69 153 -69 223 -1 l39 38 43 -22 c88 -44 168 -18 212 68 l24 48 58 -5 c45 -3 66 0 93 15 41 23 80 84 80 128 0 38 12 49 65 59 28 5 51 19 79 48 l39 41 -6 76 -6 75 37 20 c81 44 106 138 57 221 l-25 43 24 28 c37 45 46 68 46 124 0 49 -3 55 -45 96 -50 47 -52 56 -29 102 20 40 14 103 -13 140 -11 14 -39 36 -64 48 -63 32 -69 38 -62 77 8 49 -13 101 -55 136 -30 25 -45 30 -89 30 -49 0 -54 2 -64 28 -49 127 -115 166 -216 130 -32 -12 -34 -11 -81 39 -50 55 -82 69 -139 60 -31 -5 -47 -14 -99 -52 -9 -7 -19 -7 -28 0 -55 40 -73 48 -114 52 -26 2 -56 -1 -67 -8z m400 -214 c95 -26 203 -76 230 -105 13 -15 14 -23 5 -39 -6 -12 -15 -21 -21 -21 -5 0 -51 20 -102 44 -114 56 -201 76 -321 76 -424 0 -757 -383 -700 -804 l7 -46 269 0 c182 0 276 -4 291 -11 12 -7 45 -36 72 -65 28 -30 58 -54 67 -54 9 0 36 23 60 51 69 81 61 79 367 79 l269 0 7 66 c21 190 -44 401 -166 537 -53 59 -62 98 -26 105 34 7 133 -110 190 -223 68 -136 95 -345 64 -491 -56 -263 -237 -481 -478 -577 -74 -30 -215 -57 -293 -57 -70 0 -199 24 -266 49 -221 83 -409 281 -478 503 -22 73 -26 101 -26 233 -1 100 4 163 12 190 82 247 209 403 407 500 132 66 207 83 350 84 98 1 136 -3 210 -24z m-527 -527 c4 -33 -17 -41 -98 -36 -56 3 -79 21 -67 52 6 14 19 16 84 14 77 -3 78 -4 81 -30z m378 16 c38 -18 57 -45 48 -68 -9 -24 -32 -26 -68 -5 -34 20 -57 18 -88 -8 -13 -11 -21 -12 -37 -3 -39 20 -19 65 39 89 37 14 68 13 106 -5z m428 -7 c9 -15 7 -21 -8 -33 -28 -20 -130 -19 -150 2 -18 18 -18 17 -10 39 10 24 152 18 168 -8z m-859 -162 c0 -66 -1 -70 -24 -73 -31 -5 -41 12 -41 74 0 54 14 76 45 72 18 -3 20 -10 20 -73z m803 63 c16 -16 16 -110 0 -126 -33 -33 -68 -1 -68 63 0 64 35 96 68 63z"/>
 </g>
<g id="layer106" fill="#fde4df" stroke="none">
 <path d="M222 2258 c17 -161 86 -298 182 -365 l49 -34 12 28 c16 38 72 91 115 109 22 10 58 14 97 12 59 -3 64 -1 94 30 45 46 93 64 159 60 30 -3 63 -8 73 -12 13 -6 17 -4 17 12 0 15 -9 21 -35 26 -40 8 -75 47 -75 86 0 39 35 78 75 86 20 3 35 12 35 20 0 12 -46 14 -270 14 l-270 0 0 -89 c0 -95 -11 -118 -50 -106 -18 6 -20 14 -20 101 l0 94 -98 0 -98 0 8 -72z"/>
 <path d="M1100 2316 c0 -8 15 -17 35 -20 41 -8 75 -47 75 -88 0 -36 -38 -76 -80 -84 -20 -5 -30 -12 -30 -25 0 -16 4 -17 26 -9 68 26 164 4 222 -53 31 -30 37 -32 96 -29 92 5 166 -38 208 -121 l14 -28 50 34 c96 66 170 214 181 365 l6 72 -97 0 -96 0 0 -94 c0 -87 -2 -95 -20 -101 -39 -12 -50 11 -50 106 l0 89 -270 0 c-224 0 -270 -2 -270 -14z"/>
 <path d="M1000 2210 c0 -6 27 -10 60 -10 33 0 60 4 60 10 0 6 -27 10 -60 10 -33 0 -60 -4 -60 -10z"/>
 <path d="M865 2019 c-11 -6 -39 -32 -62 -57 -41 -46 -42 -46 -75 -34 -96 34 -175 -6 -209 -106 l-16 -47 -54 -3 c-91 -5 -153 -73 -148 -161 3 -56 1 -59 -38 -71 -93 -30 -141 -134 -98 -210 21 -37 18 -53 -15 -75 -73 -48 -87 -154 -29 -220 34 -39 36 -58 9 -92 -27 -35 -27 -116 0 -160 10 -18 37 -44 59 -57 l40 -26 -5 -67 c-5 -57 -2 -73 15 -101 25 -39 76 -72 112 -72 34 0 45 -15 52 -67 11 -89 80 -140 174 -130 l54 6 19 -44 c37 -87 127 -118 217 -73 l43 22 38 -37 c71 -69 153 -69 223 -1 l39 38 43 -22 c88 -44 168 -18 212 68 l24 48 58 -5 c45 -3 66 0 93 15 41 23 80 84 80 128 0 38 12 49 65 59 28 5 51 19 79 48 l39 41 -6 76 -6 75 37 20 c81 44 106 138 57 221 l-25 43 24 28 c37 45 46 68 46 124 0 49 -3 55 -45 96 -50 47 -52 56 -29 102 20 40 14 103 -13 140 -11 14 -39 36 -64 48 -63 32 -69 38 -62 77 8 49 -13 101 -55 136 -30 25 -45 30 -89 30 -49 0 -54 2 -64 28 -49 127 -115 166 -216 130 -32 -12 -34 -11 -81 39 -50 55 -82 69 -139 60 -31 -5 -47 -14 -99 -52 -9 -7 -19 -7 -28 0 -55 40 -73 48 -114 52 -26 2 -56 -1 -67 -8z m400 -214 c93 -25 203 -76 229 -104 20 -22 10 -61 -16 -61 -10 0 -49 15 -86 34 -128 65 -247 92 -377 84 -90 -6 -141 -24 -226 -82 -225 -152 -357 -423 -334 -688 l7 -77 235 -3 235 -3 52 -58 c67 -75 84 -75 152 0 l51 58 281 3 c318 3 286 -7 297 97 18 173 -65 404 -193 538 -30 31 -35 41 -26 55 28 43 71 16 149 -93 94 -132 135 -254 142 -420 4 -76 0 -132 -10 -181 -56 -263 -237 -481 -478 -577 -74 -30 -215 -57 -293 -57 -70 0 -199 24 -266 49 -221 83 -409 281 -478 503 -22 73 -26 101 -26 233 -1 100 4 163 12 190 82 247 209 403 407 500 132 66 207 83 350 84 98 1 136 -3 210 -24z m-520 -515 c11 -36 -12 -50 -80 -50 -35 0 -70 3 -79 6 -16 6 -22 45 -9 57 3 4 41 7 84 7 69 0 78 -2 84 -20z m400 -10 c14 -13 25 -31 25 -40 0 -36 -47 -53 -70 -25 -7 8 -25 15 -40 15 -15 0 -33 -7 -40 -15 -23 -28 -70 -11 -70 25 0 17 34 53 60 63 33 14 110 0 135 -23z m402 14 c13 -36 -10 -49 -87 -49 -77 0 -100 13 -87 49 5 13 22 16 87 16 65 0 82 -3 87 -16z m-859 -106 c14 -14 16 -106 3 -126 -5 -8 -21 -12 -37 -10 -28 3 -29 5 -32 62 -2 32 -1 65 2 72 7 17 48 18 64 2z m807 -63 l0 -70 -35 0 -35 0 -3 58 c-3 67 9 89 47 85 25 -3 26 -5 26 -73z"/>
 </g>
<g id="layer107" fill="#6cc1ce" stroke="none">
 <path d="M222 2258 c17 -161 86 -298 182 -365 l49 -34 12 28 c16 38 72 91 115 109 22 10 58 14 97 12 59 -3 64 -1 94 30 45 46 93 64 159 60 30 -3 63 -8 73 -12 13 -6 17 -4 17 12 0 15 -9 21 -35 26 -40 8 -75 47 -75 86 0 39 35 78 75 86 20 3 35 12 35 20 0 12 -46 14 -270 14 l-270 0 0 -89 c0 -95 -11 -118 -50 -106 -18 6 -20 14 -20 101 l0 94 -98 0 -98 0 8 -72z"/>
 <path d="M1100 2316 c0 -8 15 -17 35 -20 41 -8 75 -47 75 -88 0 -36 -38 -76 -80 -84 -20 -5 -30 -12 -30 -25 0 -16 4 -17 26 -9 68 26 164 4 222 -53 31 -30 37 -32 96 -29 92 5 166 -38 208 -121 l14 -28 50 34 c96 66 170 214 181 365 l6 72 -97 0 -96 0 0 -94 c0 -87 -2 -95 -20 -101 -39 -12 -50 11 -50 106 l0 89 -270 0 c-224 0 -270 -2 -270 -14z"/>
 <path d="M1000 2210 c0 -6 27 -10 60 -10 33 0 60 4 60 10 0 6 -27 10 -60 10 -33 0 -60 -4 -60 -10z"/>
 <path d="M865 2019 c-11 -6 -39 -32 -62 -57 -41 -46 -42 -46 -75 -34 -96 34 -175 -6 -209 -106 l-16 -47 -54 -3 c-91 -5 -153 -73 -148 -161 3 -56 1 -59 -38 -71 -93 -30 -141 -134 -98 -210 21 -37 18 -53 -15 -75 -73 -48 -87 -154 -29 -220 34 -39 36 -58 9 -92 -27 -35 -27 -116 0 -160 10 -18 37 -44 59 -57 l40 -26 -5 -67 c-5 -57 -2 -73 15 -101 25 -39 76 -72 112 -72 34 0 45 -15 52 -67 11 -89 80 -140 174 -130 l54 6 19 -44 c37 -87 127 -118 217 -73 l43 22 38 -37 c71 -69 153 -69 223 -1 l39 38 43 -22 c88 -44 168 -18 212 68 l24 48 58 -5 c45 -3 66 0 93 15 41 23 80 84 80 128 0 38 12 49 65 59 28 5 51 19 79 48 l39 41 -6 76 -6 75 37 20 c81 44 106 138 57 221 l-25 43 24 28 c37 45 46 68 46 124 0 49 -3 55 -45 96 -50 47 -52 56 -29 102 20 40 14 103 -13 140 -11 14 -39 36 -64 48 -63 32 -69 38 -62 77 8 49 -13 101 -55 136 -30 25 -45 30 -89 30 -49 0 -54 2 -64 28 -49 127 -115 166 -216 130 -32 -12 -34 -11 -81 39 -50 55 -82 69 -139 60 -31 -5 -47 -14 -99 -52 -9 -7 -19 -7 -28 0 -55 40 -73 48 -114 52 -26 2 -56 -1 -67 -8z m399 -213 c144 -40 252 -101 241 -136 -7 -21 33 -50 68 -50 39 0 132 -111 190 -225 68 -135 95 -345 64 -491 -56 -263 -237 -481 -478 -577 -74 -30 -215 -57 -293 -57 -70 0 -199 24 -266 49 -221 83 -409 281 -478 503 -22 73 -26 101 -26 233 -1 100 4 163 12 190 82 247 209 403 407 500 132 66 207 83 350 84 98 1 137 -4 209 -23z"/>
 </g>
<g id="layer108" fill="#ebeff4" stroke="none">
 <path d="M853 2011 c-18 -11 -43 -36 -55 -56 -20 -32 -27 -35 -53 -30 -110 22 -128 19 -180 -26 -23 -20 -37 -43 -41 -67 -9 -51 -21 -62 -66 -62 -93 0 -152 -57 -155 -150 -1 -30 -2 -58 -2 -62 -1 -4 -19 -13 -42 -19 -48 -15 -94 -66 -104 -116 -4 -22 0 -55 11 -89 17 -55 17 -55 -5 -70 -86 -60 -99 -168 -30 -240 31 -32 32 -36 19 -57 -31 -50 -40 -74 -40 -113 0 -52 33 -103 83 -127 l38 -19 -6 -71 c-5 -62 -3 -77 14 -105 24 -37 76 -72 108 -72 41 0 53 -11 53 -47 0 -48 26 -99 64 -126 25 -18 43 -22 100 -21 68 1 68 1 82 -31 39 -94 130 -128 220 -84 l43 22 47 -42 c44 -38 51 -41 106 -41 55 0 61 3 104 42 l45 41 45 -23 c84 -41 167 -14 209 70 l24 47 70 -1 c69 -1 72 0 107 36 29 28 40 50 49 95 l12 58 42 7 c93 16 139 83 127 187 l-6 56 45 28 c77 46 97 133 50 213 l-25 43 24 28 c37 45 46 68 46 124 0 49 -3 55 -45 96 -50 47 -52 56 -29 102 20 40 14 103 -13 140 -16 22 -77 61 -115 73 -6 2 -11 31 -12 65 -4 98 -44 141 -143 152 l-57 6 -17 49 c-36 100 -111 138 -206 104 -32 -12 -34 -11 -81 39 -50 55 -82 69 -139 60 -31 -5 -47 -14 -99 -52 -9 -7 -19 -7 -28 0 -55 40 -73 49 -114 52 -35 3 -55 -1 -79 -16z m392 -196 c41 -9 109 -35 165 -63 83 -43 95 -52 95 -75 0 -30 29 -56 65 -57 14 0 37 -10 51 -23 30 -25 99 -110 99 -121 0 -5 9 -21 20 -36 26 -37 69 -149 86 -225 7 -33 13 -108 14 -166 0 -152 -42 -293 -127 -426 -104 -163 -270 -279 -472 -329 -214 -53 -428 -14 -621 112 -157 102 -283 289 -325 481 -24 109 -17 297 15 393 51 155 150 299 264 388 61 47 198 119 255 134 135 36 282 40 416 13z"/>
 </g>

</svg>