<svg version="1.0" xmlns="http://www.w3.org/2000/svg" width="200px" height="200px" viewBox="0 0 2000 2000" preserveAspectRatio="xMidYMid meet">
<g id="layer101" fill="#608290" stroke="none">
 <path d="M34 1966 c-31 -31 -34 -39 -34 -91 l0 -58 101 -102 100 -102 -46 -72 c-53 -83 -95 -177 -127 -287 -20 -69 -23 -101 -23 -254 0 -209 16 -286 95 -445 125 -253 367 -454 635 -526 102 -27 322 -37 432 -19 413 66 749 399 822 814 14 77 14 275 0 352 -72 411 -402 741 -813 813 -37 7 -262 11 -584 11 l-524 0 -34 -34z m1128 -70 c319 -62 585 -287 693 -588 45 -126 59 -224 52 -356 -21 -401 -294 -731 -693 -838 -104 -28 -331 -27 -439 3 -328 90 -572 336 -661 669 -29 106 -27 331 4 443 29 106 87 229 146 306 25 33 46 71 46 84 0 17 -31 55 -110 136 -60 61 -110 116 -110 121 0 33 22 34 511 34 379 0 504 -3 561 -14z"/>
 <path d="M868 1329 c-10 -5 -18 -20 -18 -32 1 -12 59 -157 129 -322 110 -255 133 -301 155 -309 30 -11 56 6 56 38 0 21 -244 600 -262 624 -12 14 -37 15 -60 1z"/>
 <path d="M548 1133 c-65 -65 -118 -125 -118 -134 0 -8 56 -70 124 -137 111 -110 126 -122 147 -114 16 6 25 18 27 37 3 24 -10 42 -89 121 l-94 94 94 94 c80 80 92 97 89 122 -2 24 -8 29 -33 32 -26 2 -44 -11 -147 -115z"/>
 <path d="M1317 1243 c-4 -3 -7 -18 -7 -32 0 -19 24 -50 92 -118 l93 -93 -93 -93 c-71 -72 -92 -99 -92 -120 0 -29 29 -48 61 -40 9 3 67 55 128 117 78 80 111 120 111 136 0 17 -33 57 -113 137 -94 94 -118 113 -143 113 -17 0 -34 -3 -37 -7z"/>
 </g>

</svg>
