<svg version="1.0" xmlns="http://www.w3.org/2000/svg" width="200px" height="200px" viewBox="0 0 2000 2000" preserveAspectRatio="xMidYMid meet">
<g id="layer101" fill="#608290" stroke="none">
 <path d="M220 1776 c0 -2 63 -41 139 -86 l139 -81 -58 -60 c-77 -78 -145 -188 -184 -297 -30 -84 -31 -93 -31 -252 0 -160 1 -168 31 -253 85 -237 254 -406 491 -491 85 -30 93 -31 253 -31 159 0 168 1 252 31 270 97 472 330 519 598 25 146 2 336 -56 471 -68 157 -233 322 -390 390 -140 61 -121 59 -632 62 -260 2 -473 2 -473 -1z m440 -661 l-115 -115 114 -114 c107 -108 125 -136 83 -136 -21 0 -252 230 -252 251 0 8 56 71 125 139 118 116 127 123 143 107 15 -16 10 -24 -98 -132z m359 -101 c62 -135 111 -253 109 -262 -10 -50 -38 -4 -145 228 -62 135 -113 253 -113 263 0 10 7 17 19 17 15 0 42 -52 130 -246z m368 124 c67 -67 123 -129 123 -137 0 -21 -231 -251 -252 -251 -42 0 -24 28 83 136 l114 114 -114 114 c-99 99 -113 117 -102 130 8 9 16 16 19 16 3 0 61 -55 129 -122z"/>
 </g>

</svg>
